<?xml version="1.0" standalone="no"?>
<!DOCTYPE svg PUBLIC "-//W3C//DTD SVG 20010904//EN"
 "http://www.w3.org/TR/2001/REC-SVG-20010904/DTD/svg10.dtd">
<svg version="1.0" xmlns="http://www.w3.org/2000/svg"
 width="343.000000pt" height="343.000000pt" viewBox="0 0 343.000000 343.000000"
 preserveAspectRatio="xMidYMid meet">

<g transform="translate(0.000000,343.000000) scale(0.100000,-0.100000)"
fill="#000000" stroke="none">
<path d="M402 3415 c-15 -18 -53 -20 -69 -4 -17 17 -43 3 -43 -22 0 -15 5 -19
15 -15 10 3 15 -1 15 -12 0 -10 3 -13 8 -7 11 15 61 13 67 -3 2 -7 0 -10 -5
-7 -6 3 -10 -1 -10 -9 0 -15 -27 -15 -51 0 -19 11 -133 13 -147 2 -11 -10 -90
5 -117 21 -5 4 -22 8 -38 10 l-27 2 2 -388 3 -388 110 -8 c61 -4 191 -13 290
-20 99 -8 306 -14 460 -15 154 -1 306 -5 338 -8 56 -6 57 -6 57 19 0 14 3 32
6 40 6 17 -32 61 -45 53 -6 -4 -31 34 -31 48 0 6 32 17 60 22 43 8 52 14 46
29 -3 8 -2 15 3 15 4 0 23 21 42 48 47 66 60 79 106 104 22 13 67 38 99 56 70
39 146 56 216 47 37 -5 48 -4 43 5 -5 8 -2 9 11 1 11 -6 45 -22 76 -36 32 -15
60 -31 64 -36 4 -6 14 -3 27 8 12 9 16 11 10 3 -18 -20 -16 -28 7 -35 11 -4
18 -10 15 -14 -2 -5 18 -22 45 -39 39 -25 50 -37 51 -59 3 -48 5 -57 18 -88 7
-16 15 -68 17 -115 3 -47 6 -93 7 -102 2 -20 57 -25 402 -33 422 -10 825 -25
850 -31 l25 -6 0 88 c0 97 -6 114 -38 117 -27 2 -29 17 -3 17 24 0 36 29 15
37 -8 3 -17 3 -21 0 -3 -4 -18 0 -34 8 -31 17 -30 38 3 66 23 18 32 69 12 69
-7 0 -14 4 -16 8 -1 5 -33 25 -70 46 -36 20 -72 43 -78 51 -7 8 -27 15 -45 15
-19 0 -54 9 -80 20 -55 24 -78 25 -108 6 -20 -14 -102 -16 -259 -7 -18 1 -36
14 -58 41 l-32 40 21 26 c39 50 16 80 -38 48 -29 -17 -30 -17 -70 9 -23 15
-43 38 -47 52 -3 14 -12 25 -20 25 -8 0 -24 16 -36 35 -20 32 -27 35 -54 30
-18 -3 -44 0 -58 6 -17 8 -29 9 -38 2 -7 -6 -22 -7 -33 -3 -11 4 -28 3 -38 -2
-9 -5 -17 -5 -16 -1 1 4 1 16 0 27 -1 16 -3 16 -17 5 -9 -7 -13 -21 -10 -34 4
-16 1 -21 -17 -22 -12 0 -16 1 -9 4 9 3 4 10 -13 19 -18 9 -33 10 -50 4 -28
-11 -55 9 -55 41 0 12 -7 19 -19 19 -11 0 -25 2 -33 5 -7 3 -17 -5 -23 -17 -6
-13 -21 -25 -34 -26 -19 -3 -21 -6 -10 -13 11 -7 11 -9 -3 -9 -10 0 -18 7 -18
15 0 8 -5 15 -11 15 -5 0 -7 -5 -3 -12 5 -7 3 -8 -6 -3 -10 6 -10 11 3 20 10
7 17 19 17 27 0 9 7 21 15 28 8 7 15 19 15 26 0 11 -18 14 -77 14 -75 0 -79
-1 -94 -29 -13 -22 -23 -28 -45 -26 -16 1 -35 -2 -41 -8 -9 -6 -13 -6 -13 1 0
6 -6 9 -14 6 -9 -3 -15 5 -19 25 l-7 31 -114 0 c-91 0 -116 -3 -127 -16 -8
-10 -24 -14 -46 -12 -26 3 -34 0 -39 -15 -4 -13 0 -23 11 -30 16 -9 12 -15
-33 -57 -53 -49 -65 -84 -43 -119 7 -10 3 -24 -10 -42 -23 -32 -24 -39 -5 -39
7 0 24 -11 37 -23 13 -13 36 -27 50 -30 34 -9 58 -59 39 -82 -7 -8 -9 -15 -4
-15 5 0 4 -4 -1 -8 -18 -12 -46 -62 -35 -62 5 0 10 -4 10 -10 0 -5 -6 -7 -14
-4 -8 3 -17 1 -20 -5 -8 -12 -95 -3 -113 11 -9 8 -8 16 5 36 9 15 19 29 22 32
9 8 8 40 0 35 -5 -3 -11 -1 -14 4 -3 4 -17 9 -31 9 -13 0 -23 -3 -21 -7 3 -4
-4 -7 -14 -7 -10 0 -16 4 -14 8 3 4 -4 8 -16 8 -13 0 -19 4 -14 12 5 7 3 8 -7
2 -32 -19 -84 -20 -103 -2 -17 18 -13 114 5 103 6 -4 5 2 -3 14 -7 12 -16 21
-20 21 -5 0 -8 6 -8 14 0 8 -7 22 -16 31 -10 10 -14 24 -10 40 8 31 -6 39 -69
36 -33 -1 -55 2 -62 11 -16 20 -25 109 -12 124 21 25 -2 34 -87 34 -66 0 -86
-3 -90 -15 -4 -8 -13 -15 -21 -15 -8 0 -12 -4 -9 -9 3 -5 -8 -14 -24 -20 -28
-9 -34 -7 -31 12 0 4 -6 7 -15 7 -11 0 -15 6 -11 20 4 15 0 20 -16 20 -12 -1
-28 -7 -35 -15z m298 -30 c0 -8 -7 -15 -16 -15 -14 0 -14 3 -4 15 7 8 14 15
16 15 2 0 4 -7 4 -15z m-56 -1 c9 -3 16 -13 16 -21 0 -8 5 -11 12 -7 7 4 2 -7
-11 -24 -12 -18 -28 -32 -35 -32 -37 0 -70 75 -37 83 26 7 38 7 55 1z m-408
-127 c1 -11 -5 -17 -17 -17 -12 0 -19 7 -19 19 0 24 32 22 36 -2z m724 -351
c0 -22 -3 -24 -29 -16 -16 4 -31 6 -34 4 -10 -11 -87 -15 -87 -5 0 6 -5 10
-11 9 -6 -2 -13 2 -16 9 -3 8 4 11 19 8 34 -7 70 -8 95 -2 13 3 25 2 28 -4 9
-14 25 -11 25 6 0 8 2 15 5 15 3 0 5 -11 5 -24z m-622 -127 c3 -8 1 -11 -3 -7
-4 4 -19 2 -33 -3 -14 -5 -33 -7 -41 -3 -12 5 -9 9 14 19 35 15 57 13 63 -6z
m2262 -135 c0 -17 -14 -18 -28 -1 -8 10 -6 13 9 14 10 1 19 -5 19 -13z m434
-65 c-7 -11 -15 -11 -34 1 -13 9 -13 11 0 19 16 11 43 -5 34 -20z"/>
<path d="M2915 3394 c-8 -20 -15 -44 -15 -53 0 -9 -6 -25 -14 -36 -13 -20 -18
-57 -7 -51 11 6 36 -29 36 -51 0 -21 -38 -63 -75 -83 -25 -13 -26 -27 -2 -34
43 -14 184 -33 257 -35 43 -1 82 -4 85 -6 8 -5 207 -35 232 -35 17 0 18 13 18
210 0 199 -1 210 -19 210 -39 0 -88 -29 -101 -60 -7 -17 -24 -38 -37 -47 -21
-14 -25 -14 -48 1 -13 9 -37 16 -53 16 -15 0 -32 4 -37 9 -6 5 -21 11 -35 13
-20 2 -26 9 -28 36 l-3 32 -69 0 -70 0 -15 -36z m164 -188 c-2 -2 -13 -6 -24
-8 -11 -1 -23 -7 -26 -11 -7 -9 -35 -11 -64 -3 -11 2 -24 5 -30 5 -5 1 0 8 11
16 12 8 30 13 41 11 10 -2 30 2 43 9 21 12 27 12 39 0 8 -8 13 -16 10 -19z"/>
<path d="M790 3395 c-10 -13 -9 -15 9 -15 12 0 21 6 21 15 0 8 -4 15 -9 15 -5
0 -14 -7 -21 -15z"/>
<path d="M2091 3389 c9 -17 13 -19 19 -8 11 16 4 29 -16 29 -12 0 -13 -4 -3
-21z"/>
<path d="M1087 3138 c-6 -18 12 -50 24 -43 5 4 9 1 9 -6 0 -12 29 19 30 32 0
5 -45 29 -55 29 -2 0 -5 -6 -8 -12z"/>
<path d="M1685 2999 c-4 -6 -4 -13 -1 -16 8 -8 36 5 36 17 0 13 -27 13 -35 -1z"/>
<path d="M1712 2974 c-4 -8 -26 -15 -49 -17 -32 -1 -41 -6 -40 -19 2 -21 20
-23 36 -4 6 7 22 11 35 9 13 -3 27 0 30 6 4 6 15 11 24 11 21 -1 -32 -26 -71
-34 -15 -4 -26 -10 -23 -14 2 -4 -7 -9 -22 -10 -15 -1 -47 -8 -72 -16 -25 -8
-57 -17 -72 -20 -19 -4 -28 -13 -28 -26 0 -14 -7 -20 -21 -20 -12 0 -17 -4
-14 -11 4 -6 13 -8 21 -5 7 3 16 1 19 -4 4 -6 -3 -10 -15 -10 -13 0 -28 -12
-38 -30 -9 -16 -20 -30 -24 -30 -5 0 -8 -5 -8 -12 0 -6 9 -3 20 7 27 25 27 -1
0 -30 -11 -12 -22 -36 -23 -52 -2 -38 -12 -34 -21 7 -6 31 -6 31 -30 13 -13
-10 -24 -25 -24 -33 0 -8 -2 -31 -5 -50 -2 -19 1 -57 8 -83 7 -26 8 -50 4 -53
-13 -7 -11 -61 2 -86 11 -20 5 -69 -9 -67 -25 4 -29 -3 -22 -34 4 -19 12 -42
18 -53 10 -16 11 -13 12 24 0 23 5 42 10 42 6 0 10 7 10 17 0 14 2 14 20 -2
26 -24 29 -19 21 35 -5 30 -3 54 6 73 9 18 10 27 2 27 -6 0 -9 6 -6 13 2 6 1
21 -4 33 -11 31 3 49 30 35 11 -6 32 -9 46 -5 21 5 25 3 25 -16 0 -11 4 -19 9
-16 5 4 11 1 13 -5 2 -7 17 -8 41 -4 20 4 34 11 31 16 -3 5 9 16 27 23 31 13
59 13 103 0 10 -4 16 -2 13 2 -3 5 1 14 8 21 8 8 15 9 17 2 2 -5 12 -3 23 5
20 15 20 15 -1 16 -12 0 -25 10 -32 24 -10 22 -8 25 16 31 41 11 82 13 88 3 3
-4 12 -8 20 -8 9 0 22 -7 30 -15 10 -10 25 -12 47 -8 18 3 36 6 42 7 14 2 16
-45 3 -77 -9 -23 -8 -31 3 -38 8 -5 10 -9 5 -9 -4 0 2 -9 15 -19 15 -12 28
-16 34 -10 18 18 34 8 41 -25 3 -19 12 -37 20 -40 8 -3 14 -17 14 -31 0 -14 9
-30 20 -37 24 -15 25 -27 6 -42 -19 -14 -35 -72 -17 -62 6 4 9 11 6 15 -2 5
11 25 29 45 37 39 40 65 9 81 -16 8 -18 15 -11 34 10 29 21 20 37 -30 8 -26 9
-44 1 -64 -9 -23 -8 -26 3 -17 17 14 24 151 8 154 -6 0 -17 1 -23 2 -28 2 -41
28 -39 78 0 39 -4 55 -19 68 -15 13 -19 27 -16 51 2 19 -1 40 -8 48 -9 12 -8
13 7 8 9 -3 17 -2 17 3 0 6 -7 10 -15 10 -8 0 -15 5 -15 11 0 6 6 9 14 6 18
-7 9 33 -11 50 -9 7 -13 20 -9 35 3 13 3 18 0 11 -3 -7 -12 -9 -20 -6 -12 4
-11 8 6 20 11 8 18 19 14 24 -3 6 -11 3 -18 -7 -12 -16 -14 -15 -20 9 -6 26
-57 62 -70 50 -3 -4 -6 2 -7 13 0 18 -1 18 -9 -1 -8 -19 -9 -19 -9 2 -1 19
-14 36 -31 39 -28 4 -99 28 -115 38 -32 20 -74 25 -83 10z m168 -114 c0 -5 -2
-10 -4 -10 -3 0 -8 5 -11 10 -3 6 -1 10 4 10 6 0 11 -4 11 -10z m77 -22 c0
-13 -1 -17 -4 -10 -3 6 -9 10 -13 7 -5 -3 -12 0 -16 6 -4 7 -3 9 4 5 6 -3 13
-2 17 4 9 14 11 13 12 -12z m47 -40 c-3 -5 -12 -1 -20 9 -20 27 -17 39 6 18
11 -10 17 -22 14 -27z m-169 12 c-3 -5 -14 -6 -25 -3 -11 3 -18 9 -15 13 3 5
14 6 25 3 11 -3 18 -9 15 -13z m242 -252 c-3 -8 -6 -5 -6 6 -1 11 2 17 5 13 3
-3 4 -12 1 -19z m-723 -3 c-6 -16 -24 -21 -24 -7 0 11 11 22 21 22 5 0 6 -7 3
-15z"/>
<path d="M1855 2980 c-3 -6 1 -7 9 -4 18 7 21 14 7 14 -6 0 -13 -4 -16 -10z"/>
<path d="M1394 2818 l-29 -33 30 26 c17 15 37 29 45 32 13 5 13 6 -1 6 -8 1
-28 -14 -45 -31z"/>
<path d="M3406 2834 c-4 -10 -1 -14 6 -12 15 5 23 28 10 28 -5 0 -13 -7 -16
-16z"/>
<path d="M1350 2760 c-11 -11 -20 -26 -20 -32 0 -7 11 0 25 16 14 16 25 31 25
33 0 8 -11 2 -30 -17z"/>
<path d="M1865 2550 c-3 -5 -1 -10 4 -10 6 0 11 5 11 10 0 6 -2 10 -4 10 -3 0
-8 -4 -11 -10z"/>
<path d="M0 2240 c0 -140 4 -250 8 -244 15 24 51 25 99 3 26 -12 62 -28 80
-35 18 -8 35 -19 38 -24 12 -20 24 1 15 25 -8 20 -5 27 13 40 31 22 59 19 95
-11 26 -22 32 -34 32 -65 0 -25 -6 -42 -18 -51 -10 -7 -21 -21 -25 -30 -5 -15
4 -21 50 -34 52 -15 57 -15 65 0 8 14 12 15 25 4 18 -14 41 -19 47 -9 4 7 17
89 19 119 0 6 8 12 18 12 17 0 23 -14 32 -85 4 -33 13 -40 54 -40 l38 0 -3 67
c-2 47 2 76 13 98 17 32 30 35 78 15 13 -6 17 -2 17 18 0 17 14 39 40 63 22
21 38 44 36 51 -3 7 -1 13 4 13 6 0 9 3 9 8 -4 23 2 52 10 48 14 -9 21 20 8
33 -12 12 -1 15 36 12 9 -1 17 3 17 9 0 6 -4 8 -10 5 -6 -3 -10 -1 -10 5 0 7
6 10 14 7 8 -3 17 -3 19 1 2 4 3 2 1 -4 -1 -7 6 -10 18 -6 14 3 19 1 14 -6 -4
-7 -2 -12 3 -12 6 0 11 7 11 15 0 11 8 13 33 8 34 -6 35 -6 54 -4 11 1 29 39
25 54 -1 4 5 7 13 7 9 0 12 -6 9 -17 -3 -10 2 -6 11 10 19 32 25 35 18 6 -5
-19 -3 -18 22 5 16 15 30 24 33 21 3 -3 -3 -12 -14 -21 -17 -13 -16 -13 13 1
18 8 40 15 50 15 11 0 14 3 7 8 -6 4 -10 17 -9 30 1 12 -2 22 -7 22 -4 0 -8
-5 -8 -12 0 -6 -8 -4 -19 6 -11 10 -24 15 -30 12 -6 -4 -8 2 -6 14 3 18 -2 20
-48 21 -29 1 -68 3 -87 4 -19 2 -73 6 -118 9 -46 3 -127 14 -180 22 -74 13
-176 17 -434 18 l-338 1 0 -255z m1075 31 c-6 -5 -25 10 -25 20 0 5 6 4 14 -3
8 -7 12 -15 11 -17z"/>
<path d="M2213 2329 c-2 -92 -15 -139 -53 -184 -14 -17 -35 -21 -25 -5 3 6 -4
10 -16 10 -17 0 -19 -3 -10 -14 7 -8 8 -16 3 -18 -5 -1 -12 -46 -15 -100 -4
-75 -2 -101 10 -117 13 -19 51 -32 40 -13 -3 4 8 7 24 7 16 0 29 -3 29 -6 0
-17 42 -15 65 3 25 19 27 19 45 3 19 -17 21 -17 47 12 16 16 40 37 55 46 38
23 108 46 123 41 8 -3 17 8 25 30 6 19 17 40 25 46 7 6 17 25 20 41 10 42 -14
65 -76 73 -55 7 -90 34 -83 63 6 20 73 50 117 52 15 0 44 8 65 17 50 21 128
20 177 -1 49 -21 150 -21 242 0 35 8 97 16 138 17 80 3 104 14 33 14 -24 0
-106 6 -183 13 -77 6 -194 11 -260 10 -133 -3 -330 14 -348 29 -7 6 -57 13
-112 17 l-100 7 -2 -93z"/>
<path d="M1815 2379 c-41 -11 -118 -20 -185 -23 -159 -5 -186 -19 -188 -93 -1
-29 3 -33 25 -33 19 0 23 -3 15 -12 -11 -14 -7 -15 76 -19 21 -1 53 6 72 17
19 10 38 17 43 16 4 -1 10 11 13 27 7 31 20 41 50 37 12 -2 20 -13 22 -29 4
-35 31 -57 43 -35 7 13 15 15 42 7 39 -11 84 -12 89 -1 6 14 67 52 84 52 12 0
15 6 10 23 -3 12 -6 28 -6 35 0 20 -62 52 -100 51 -19 -1 -66 -10 -105 -20z"/>
<path d="M1336 2231 c-21 -23 -18 -49 6 -65 20 -12 23 -10 31 25 4 15 1 33 -6
43 -12 16 -14 16 -31 -3z"/>
<path d="M1261 2206 c10 -20 9 -28 -5 -41 -9 -9 -20 -14 -25 -11 -5 3 -17 -5
-27 -19 -10 -13 -21 -22 -25 -19 -4 2 -6 -28 -5 -68 3 -59 9 -82 31 -119 21
-34 33 -45 46 -42 11 3 17 9 14 13 -3 5 4 6 16 3 13 -4 18 -11 14 -22 -3 -8
-3 -12 1 -8 4 4 12 -1 19 -10 8 -11 26 -16 51 -16 l39 1 -50 -14 c-27 -8 -70
-16 -95 -18 -25 -2 -57 -7 -73 -11 l-27 -7 39 -26 c22 -14 38 -28 36 -30 -3
-3 -10 0 -18 6 -7 6 -25 13 -39 16 -31 5 -43 -15 -28 -45 7 -12 7 -19 1 -19
-14 0 -25 -105 -13 -137 9 -28 9 -28 -67 -57 -136 -51 -361 -167 -379 -195 -9
-14 -20 -29 -25 -32 -5 -4 -14 -16 -20 -27 -7 -11 -25 -42 -40 -69 -29 -48
-77 -197 -77 -236 0 -11 -7 -28 -15 -37 -9 -10 -25 -57 -36 -106 -11 -49 -36
-136 -54 -194 -48 -146 -91 -351 -120 -563 l-6 -47 1400 0 1401 0 0 33 c0 68
-64 585 -76 617 -3 8 -10 42 -15 75 -20 144 -43 260 -71 360 -32 115 -90 186
-222 272 -94 61 -224 133 -241 133 -25 0 -78 38 -96 69 -12 20 -31 46 -43 59
-11 12 -21 29 -22 38 -4 24 -12 28 -52 30 -29 0 -38 -4 -44 -20 -5 -18 -6 -16
-7 8 -1 19 -12 38 -33 57 -18 16 -36 29 -39 29 -4 0 -10 16 -13 36 -8 41 -46
64 -58 34 -10 -27 -23 -31 -36 -9 -7 11 -8 19 -2 19 5 0 10 5 10 11 0 6 -7 8
-15 5 -10 -4 -6 7 10 28 25 33 48 115 29 103 -5 -3 -8 24 -6 64 3 47 0 69 -8
69 -6 0 -9 4 -6 8 2 4 -6 8 -19 8 -13 0 -21 -4 -19 -8 9 -14 -37 -2 -99 26
-59 26 -97 33 -97 17 0 -5 7 -11 15 -15 8 -3 15 -14 15 -24 0 -15 -13 -20 -77
-30 -43 -7 -91 -12 -107 -12 -27 0 -28 1 -21 36 7 41 12 42 -80 -20 -33 -22
-63 -40 -67 -38 -5 1 -8 -2 -8 -8 0 -5 -7 -7 -15 -4 -20 8 -20 -51 0 -100 9
-20 17 -50 19 -67 2 -20 19 -47 46 -74 27 -27 44 -55 46 -72 1 -15 3 -29 4
-30 3 -3 7 -19 9 -33 0 -5 6 -10 12 -10 8 0 7 5 -1 15 -11 13 -10 14 4 9 9 -3
16 -1 16 5 0 6 9 11 21 11 13 0 18 -4 13 -12 -4 -7 -3 -8 5 -4 7 4 33 -6 61
-24 47 -30 57 -50 24 -50 -8 0 -13 4 -9 9 7 12 -34 36 -43 26 -4 -3 0 -10 8
-16 12 -7 11 -10 -7 -15 -13 -4 -20 -10 -17 -15 3 -5 -2 -6 -10 -3 -9 3 -16 1
-16 -5 0 -6 3 -11 8 -11 18 -1 32 -18 26 -33 -4 -12 -12 -14 -27 -8 -12 5 -29
6 -37 4 -10 -3 -9 0 3 7 9 6 22 8 27 5 16 -10 12 11 -5 25 -8 7 -24 10 -35 7
-11 -3 -18 -2 -15 3 2 4 -5 16 -17 26 -21 19 -21 19 -9 -3 6 -13 8 -23 2 -23
-5 0 -12 7 -15 16 -3 8 -10 12 -16 9 -5 -3 -10 -2 -10 4 0 5 6 12 13 15 6 3 1
5 -13 5 -60 -2 -60 -3 -60 56 0 30 -3 55 -7 55 -3 0 -19 -15 -35 -32 -16 -18
-25 -24 -19 -13 5 11 23 33 40 49 36 35 39 60 11 120 -11 24 -25 66 -31 92 -6
27 -13 55 -15 62 -2 6 -12 12 -23 12 -25 0 -68 52 -97 117 -13 28 -28 54 -34
58 -7 4 -6 -2 1 -19z m619 -90 c0 -2 -7 -6 -15 -10 -8 -3 -15 -1 -15 4 0 6 7
10 15 10 8 0 15 -2 15 -4z m10 -56 c29 -20 -17 -37 -133 -49 -62 -6 -121 -11
-130 -11 -26 0 -20 29 9 42 20 10 30 9 54 -5 38 -23 66 -21 120 8 51 27 59 29
80 15z m-413 -57 c-3 -10 -5 -4 -5 12 0 17 2 24 5 18 2 -7 2 -21 0 -30z m401
-43 c4 0 18 7 30 16 27 19 45 10 37 -19 -4 -12 -3 -17 2 -12 4 6 14 11 21 13
16 3 16 -50 0 -66 -7 -7 -9 -12 -5 -12 4 0 -4 -12 -18 -27 -14 -15 -25 -31
-25 -34 0 -12 -77 -28 -143 -30 -45 -1 -74 -7 -83 -17 -13 -13 -20 -12 -55 3
-41 19 -77 59 -98 113 -8 17 -19 32 -25 33 -28 3 64 20 103 19 36 0 42 2 37
16 -4 12 -2 15 9 10 8 -3 15 -1 15 3 0 5 10 9 23 9 49 0 149 11 155 17 4 4 8
-3 10 -14 2 -12 7 -21 10 -21z m-425 -107 c-7 -2 -19 -2 -25 0 -7 3 -2 5 12 5
14 0 19 -2 13 -5z m-89 -137 c9 -14 12 -27 7 -31 -5 -3 -12 -1 -16 5 -4 6 -11
8 -16 4 -5 -3 -8 0 -7 7 2 7 -6 14 -18 15 -11 0 -29 6 -40 12 -16 10 -12 11
27 12 39 0 49 -4 63 -24z m366 -167 c0 -4 -7 -6 -15 -3 -8 4 -15 10 -15 15 0
4 7 6 15 3 8 -4 15 -10 15 -15z m-580 -45 c0 -6 -106 -54 -118 -54 -8 1 100
59 111 60 4 0 7 -2 7 -6z m-144 -69 c-11 -8 -25 -15 -30 -15 -6 0 -2 7 8 15
11 8 25 15 30 15 6 0 2 -7 -8 -15z m857 -450 c13 -6 17 -19 17 -56 0 -27 -4
-49 -10 -49 -5 0 -14 -9 -20 -21 -13 -24 3 -51 26 -42 24 9 16 -33 -8 -49 -18
-12 -27 -13 -40 -4 -13 8 -23 8 -38 -2 -17 -10 -21 -10 -26 2 -11 28 1 51 36
68 30 15 31 18 12 18 -36 0 -79 -27 -84 -52 -6 -34 2 -58 18 -58 8 0 14 -4 14
-8 0 -5 -13 -7 -30 -4 l-30 4 0 69 0 69 58 2 57 2 -57 3 -58 4 0 39 c0 25 5
40 13 41 10 0 10 2 0 6 -7 2 -13 12 -13 20 0 14 11 15 73 10 39 -3 80 -8 90
-12z m-199 -62 c-5 -46 -13 -73 -27 -87 l-20 -21 7 64 c3 35 6 75 6 87 0 18 6
24 21 24 19 0 20 -4 13 -67z m306 -4 c0 -19 -20 -48 -40 -59 -19 -10 -20 -7
-20 45 l0 56 30 -16 c17 -9 30 -20 30 -26z m-1443 -316 c-2 -16 -4 -3 -4 27 0
30 2 43 4 28 2 -16 2 -40 0 -55z m583 48 c0 -17 -4 -33 -10 -36 -5 -3 -10 -20
-10 -38 l0 -31 17 24 c9 13 17 42 18 65 0 45 12 51 71 40 30 -5 34 -10 34 -35
0 -17 -4 -30 -9 -30 -6 0 -21 -15 -35 -32 l-24 -33 15 -70 c9 -38 22 -74 29
-78 8 -4 14 -19 14 -32 0 -23 -4 -25 -51 -25 l-52 0 6 43 c3 24 3 57 -1 72
l-8 29 -17 -24 c-19 -27 -23 -60 -7 -60 6 0 10 -13 10 -30 0 -29 -1 -30 -50
-30 -49 0 -50 1 -50 29 0 16 4 31 9 33 13 5 24 208 11 208 -5 0 -10 13 -10 29
0 32 10 38 68 40 29 1 32 -2 32 -28z m498 -9 c6 -9 12 -29 12 -45 0 -25 -3
-28 -27 -25 -16 2 -27 8 -25 16 1 7 -9 12 -28 12 -26 0 -30 -4 -30 -28 0 -25
5 -30 43 -42 23 -7 45 -17 49 -24 13 -19 8 -150 -6 -168 -10 -14 -28 -18 -69
-18 -49 0 -59 3 -73 24 -23 37 -15 70 19 74 18 2 27 -1 27 -11 0 -15 37 -30
52 -21 4 3 8 23 8 44 0 37 -2 39 -37 46 -67 12 -73 18 -73 83 0 43 5 65 20 84
19 24 25 25 73 20 29 -3 57 -12 65 -21z m262 -37 c0 -39 -3 -45 -21 -45 -12 0
-28 8 -35 17 -7 10 -15 16 -17 13 -8 -8 -12 -218 -4 -226 4 -4 7 -18 7 -31 0
-21 -4 -23 -52 -23 -35 0 -48 3 -39 9 8 5 11 16 8 25 -3 8 -2 18 3 21 13 8 13
225 1 225 -5 0 -12 -8 -14 -17 -3 -10 -5 3 -6 30 l-1 47 85 0 85 0 0 -45z
m190 6 c0 -16 -4 -31 -10 -33 -12 -4 28 -228 41 -228 5 0 9 -14 9 -31 0 -30
-1 -30 -47 -27 -51 3 -51 3 -38 66 7 32 7 32 -29 32 -25 0 -36 -4 -36 -15 0
-8 5 -15 10 -15 6 0 10 -14 10 -31 0 -30 -1 -30 -47 -27 -42 3 -48 6 -51 26
-2 13 3 29 11 35 19 15 58 194 50 230 -7 37 8 34 31 -6 10 -18 21 -27 23 -20
3 7 -3 23 -11 35 -24 34 -20 38 34 38 49 0 50 -1 50 -29z m200 8 c46 -5 86
-12 88 -14 2 -2 1 -22 -3 -44 -6 -35 -10 -41 -31 -41 -14 0 -24 6 -24 14 0 8
-6 16 -14 19 -9 4 -15 -6 -20 -31 -9 -59 -7 -180 4 -187 6 -3 10 -17 10 -31 0
-24 -2 -25 -52 -22 -49 3 -53 5 -56 31 -2 19 1 27 11 27 12 0 16 21 19 108 2
64 -1 110 -7 114 -5 4 -11 1 -13 -7 -2 -9 -15 -15 -33 -15 -28 0 -29 2 -29 45
0 44 1 45 33 45 18 0 71 -5 117 -11z m230 -30 l50 -11 0 -44 c0 -34 -4 -44
-16 -44 -9 0 -18 9 -21 20 -3 11 -11 20 -18 20 -18 0 -30 -59 -16 -73 8 -8 11
-8 11 1 0 7 9 12 20 12 15 0 20 -7 20 -27 0 -68 -27 -94 -57 -55 -12 15 -13
12 -11 -27 2 -25 9 -46 16 -49 6 -2 12 4 12 13 0 10 7 15 18 13 12 -2 18 -15
20 -47 l3 -43 -53 7 c-29 3 -61 9 -70 11 -21 6 -25 52 -5 59 16 7 24 215 8
215 -6 0 -11 14 -11 30 0 35 14 37 100 19z m-1120 -89 c0 -29 -1 -30 -49 -30
-55 0 -63 6 -54 38 5 19 12 22 54 22 48 0 49 -1 49 -30z"/>
<path d="M1705 1940 c-3 -5 -1 -10 4 -10 6 0 11 5 11 10 0 6 -2 10 -4 10 -3 0
-8 -4 -11 -10z"/>
<path d="M1750 1890 l-25 -8 25 -1 c14 0 32 4 40 9 13 9 13 10 0 9 -8 -1 -26
-5 -40 -9z"/>
<path d="M1987 523 c-18 -65 -18 -73 2 -73 17 0 18 5 14 43 -7 50 -9 55 -16
30z"/>
<path d="M2885 2222 c-11 -2 -24 -10 -28 -18 -4 -8 -13 -14 -20 -14 -43 -2
-81 -78 -54 -108 22 -24 37 -99 41 -202 3 -90 23 -145 54 -154 66 -19 89 -18
105 8 9 14 17 30 17 35 0 6 18 29 40 51 22 22 40 45 40 49 0 16 36 18 71 4 32
-13 69 -59 69 -88 0 -7 17 -21 38 -30 20 -10 47 -27 59 -38 l22 -20 10 27 c17
42 44 30 55 -24 22 -118 24 -107 25 128 l1 243 -22 -12 c-18 -10 -20 -9 -14 7
5 15 3 15 -11 -3 -15 -19 -27 -22 -75 -20 -31 1 -54 5 -51 10 2 4 0 7 -6 7 -5
0 -12 -6 -14 -12 -3 -8 -6 -6 -6 5 -1 24 29 69 43 64 6 -3 17 2 24 9 7 8 8 14
2 14 -5 0 -10 4 -10 9 0 5 9 7 20 4 28 -7 25 11 -4 26 -15 9 -39 11 -67 6 -62
-10 -121 -6 -144 9 -18 11 -50 17 -160 30 -16 1 -39 1 -50 -2z"/>
<path d="M3411 2191 c-8 -5 -9 -11 -3 -15 5 -3 12 1 16 9 6 17 6 18 -13 6z"/>
<path d="M3346 2178 c3 -5 10 -6 15 -3 13 9 11 12 -6 12 -8 0 -12 -4 -9 -9z"/>
<path d="M247 1917 c-3 -8 1 -14 8 -14 7 0 11 6 8 14 -3 7 -6 13 -8 13 -2 0
-5 -6 -8 -13z"/>
<path d="M1588 1643 c7 -3 16 -2 19 1 4 3 -2 6 -13 5 -11 0 -14 -3 -6 -6z"/>
</g>
</svg>
